<svg width="17" height="17" viewBox="0 0 17 17" fill="none" xmlns="http://www.w3.org/2000/svg">
<path d="M8.67188 0.5C4.25187 0.5 0.671875 4.08 0.671875 8.5C0.671875 12.04 2.96187 15.03 6.14187 16.09C6.54187 16.16 6.69187 15.92 6.69187 15.71C6.69187 15.52 6.68188 14.89 6.68188 14.22C4.67188 14.59 4.15188 13.73 3.99187 13.28C3.90188 13.05 3.51187 12.34 3.17188 12.15C2.89188 12 2.49187 11.63 3.16188 11.62C3.79187 11.61 4.24187 12.2 4.39188 12.44C5.11188 13.65 6.26188 13.31 6.72188 13.1C6.79188 12.58 7.00187 12.23 7.23187 12.03C5.45187 11.83 3.59188 11.14 3.59188 8.08C3.59188 7.21 3.90188 6.49 4.41188 5.93C4.33188 5.73 4.05187 4.91 4.49187 3.81C4.49187 3.81 5.16187 3.6 6.69187 4.63C7.33187 4.45 8.01188 4.36 8.69188 4.36C9.37188 4.36 10.0519 4.45 10.6919 4.63C12.2219 3.59 12.8919 3.81 12.8919 3.81C13.3319 4.91 13.0519 5.73 12.9719 5.93C13.4819 6.49 13.7919 7.2 13.7919 8.08C13.7919 11.15 11.9219 11.83 10.1419 12.03C10.4319 12.28 10.6819 12.76 10.6819 13.51C10.6819 14.58 10.6719 15.44 10.6719 15.71C10.6719 15.92 10.8219 16.17 11.2219 16.09C12.8101 15.554 14.1902 14.5333 15.1679 13.1718C16.1456 11.8102 16.6716 10.1762 16.6719 8.5C16.6719 4.08 13.0919 0.5 8.67188 0.5Z" fill="white"/>
</svg>
