<svg width="512" height="512" viewBox="0 0 512 512" fill="none" xmlns="http://www.w3.org/2000/svg">
<path opacity="0.2" d="M0 49.5484C0 22.1836 22.1836 0 49.5484 0H256C397.385 0 512 114.615 512 256C512 397.385 397.385 512 256 512C114.615 512 0 397.385 0 256V49.5484Z" fill="#003053"/>
<path opacity="0.4" d="M115.613 165.161C115.613 137.796 137.796 115.613 165.161 115.613H305.548C410.447 115.613 495.484 200.65 495.484 305.548C495.484 410.447 410.447 495.484 305.548 495.484C200.65 495.484 115.613 410.447 115.613 305.548V165.161Z" fill="#003053"/>
<path d="M231.226 272.516C231.226 249.712 249.712 231.226 272.516 231.226H355.097C423.509 231.226 478.968 286.685 478.968 355.097C478.968 423.509 423.509 478.968 355.097 478.968C286.685 478.968 231.226 423.509 231.226 355.097V272.516Z" fill="#003053"/>
</svg>
