<svg width="221" height="40" viewBox="0 0 221 40" fill="none" xmlns="http://www.w3.org/2000/svg">
<path d="M99.2902 21.9643H94.6838V31.1795H90.551V7.26282H98.9145C101.659 7.26282 103.777 7.88154 105.269 9.11899C106.761 10.3564 107.507 12.1469 107.507 14.4904C107.507 16.0892 107.12 17.4307 106.347 18.5148C105.585 19.588 104.517 20.4148 103.145 20.9952L108.487 30.9659V31.1795H104.06L99.2902 21.9643ZM94.6838 18.6298H98.9309C100.325 18.6298 101.414 18.2794 102.198 17.5785C102.982 16.8667 103.374 15.8976 103.374 14.6711C103.374 13.3898 103.009 12.3988 102.28 11.6979C101.561 10.9971 100.483 10.6357 99.0452 10.6138H94.6838V18.6298Z" fill="black"/>
<path d="M118.827 31.508C116.311 31.508 114.269 30.7141 112.701 29.1262C111.144 27.5274 110.365 25.4029 110.365 22.7528V22.26C110.365 20.486 110.703 18.9036 111.378 17.5128C112.064 16.1111 113.022 15.0215 114.253 14.244C115.484 13.4665 116.856 13.0777 118.369 13.0777C120.776 13.0777 122.633 13.8498 123.94 15.3938C125.257 16.9379 125.916 19.1226 125.916 21.9479V23.5577H114.367C114.487 25.0251 114.972 26.1859 115.821 27.0401C116.682 27.8942 117.76 28.3213 119.056 28.3213C120.874 28.3213 122.355 27.5821 123.499 26.1038L125.639 28.1571C124.931 29.2193 123.983 30.0461 122.796 30.6374C121.62 31.2178 120.297 31.508 118.827 31.508ZM118.353 16.2808C117.264 16.2808 116.382 16.6641 115.707 17.4307C115.043 18.1972 114.618 19.265 114.433 20.6338H121.996V20.3381C121.909 19.0021 121.555 17.9947 120.934 17.3157C120.313 16.6258 119.453 16.2808 118.353 16.2808Z" fill="black"/>
<path d="M139.572 31.1795C139.398 30.84 139.246 30.287 139.115 29.5204C137.852 30.8455 136.305 31.508 134.476 31.508C132.701 31.508 131.252 30.9988 130.131 29.9804C129.009 28.9619 128.448 27.7026 128.448 26.2023C128.448 24.3078 129.145 22.8568 130.539 21.8494C131.944 20.8309 133.948 20.3217 136.55 20.3217H138.984V19.1554C138.984 18.2356 138.728 17.5019 138.216 16.9543C137.705 16.3958 136.926 16.1166 135.881 16.1166C134.977 16.1166 134.236 16.3466 133.659 16.8065C133.082 17.2555 132.793 17.8304 132.793 18.5312H128.824C128.824 17.5566 129.145 16.6477 129.788 15.8045C130.43 14.9503 131.301 14.2823 132.401 13.8005C133.512 13.3186 134.748 13.0777 136.109 13.0777C138.178 13.0777 139.828 13.6034 141.059 14.6546C142.289 15.695 142.921 17.1624 142.954 19.0569V27.0729C142.954 28.6717 143.177 29.9475 143.623 30.9002V31.1795H139.572ZM135.211 28.3049C135.995 28.3049 136.73 28.1132 137.416 27.73C138.113 27.3467 138.636 26.832 138.984 26.1859V22.8349H136.844C135.374 22.8349 134.269 23.0923 133.528 23.607C132.788 24.1217 132.418 24.8499 132.418 25.7917C132.418 26.5582 132.668 27.1715 133.169 27.6314C133.681 28.0804 134.361 28.3049 135.211 28.3049Z" fill="black"/>
<path d="M154.372 28.3213C155.363 28.3213 156.185 28.0311 156.838 27.4507C157.492 26.8703 157.84 26.153 157.884 25.2989H161.624C161.581 26.4049 161.238 27.4398 160.595 28.4034C159.953 29.3562 159.082 30.1118 157.982 30.6703C156.882 31.2288 155.695 31.508 154.421 31.508C151.949 31.508 149.988 30.7031 148.54 29.0933C147.092 27.4836 146.368 25.2605 146.368 22.4243V22.0136C146.368 19.3088 147.086 17.146 148.524 15.5252C149.961 13.8936 151.921 13.0777 154.404 13.0777C156.506 13.0777 158.216 13.6964 159.534 14.9339C160.862 16.1604 161.559 17.7756 161.624 19.7796H157.884C157.84 18.7612 157.492 17.9235 156.838 17.2664C156.196 16.6094 155.374 16.2808 154.372 16.2808C153.087 16.2808 152.096 16.7517 151.399 17.6935C150.702 18.6243 150.348 20.0425 150.337 21.9479V22.5885C150.337 24.5159 150.68 25.9559 151.366 26.9087C152.063 27.8504 153.065 28.3213 154.372 28.3213Z" fill="black"/>
<path d="M169.596 9.08614V13.4062H172.716V16.363H169.596V26.2845C169.596 26.9634 169.727 27.4562 169.988 27.7628C170.26 28.0585 170.739 28.2063 171.425 28.2063C171.883 28.2063 172.346 28.1516 172.814 28.0421V31.1302C171.91 31.3821 171.039 31.508 170.2 31.508C167.151 31.508 165.626 29.8161 165.626 26.4323V16.363H162.719V13.4062H165.626V9.08614H169.596Z" fill="black"/>
<path d="M179.985 31.1795H176.015V13.4062H179.985V31.1795ZM175.77 8.79046C175.77 8.17722 175.961 7.668 176.342 7.26282C176.734 6.85764 177.29 6.65505 178.008 6.65505C178.727 6.65505 179.282 6.85764 179.675 7.26282C180.067 7.668 180.263 8.17722 180.263 8.79046C180.263 9.39276 180.067 9.8965 179.675 10.3017C179.282 10.6959 178.727 10.893 178.008 10.893C177.29 10.893 176.734 10.6959 176.342 10.3017C175.961 9.8965 175.77 9.39276 175.77 8.79046Z" fill="black"/>
<path d="M183.579 22.1286C183.579 20.3874 183.922 18.8214 184.608 17.4307C185.294 16.029 186.258 14.9558 187.499 14.2111C188.74 13.4555 190.167 13.0777 191.779 13.0777C194.164 13.0777 196.097 13.8498 197.578 15.3938C199.07 16.9379 199.875 18.9857 199.995 21.5373L200.012 22.4736C200.012 24.2257 199.674 25.7917 198.999 27.1715C198.334 28.5513 197.376 29.619 196.124 30.3746C194.882 31.1302 193.445 31.508 191.811 31.508C189.318 31.508 187.319 30.6757 185.816 29.0112C184.325 27.3357 183.579 25.1072 183.579 22.3257V22.1286ZM187.548 22.4736C187.548 24.3023 187.924 25.7369 188.675 26.7772C189.426 27.8066 190.472 28.3213 191.811 28.3213C193.151 28.3213 194.191 27.7957 194.931 26.7444C195.683 25.6931 196.058 24.1545 196.058 22.1286C196.058 20.3327 195.672 18.9091 194.899 17.8578C194.136 16.8065 193.096 16.2808 191.779 16.2808C190.483 16.2808 189.454 16.801 188.691 17.8413C187.929 18.8707 187.548 20.4148 187.548 22.4736Z" fill="black"/>
<path d="M207.052 13.4062L207.166 15.4595C208.473 13.8717 210.188 13.0777 212.312 13.0777C215.993 13.0777 217.866 15.1967 217.931 19.4347V31.1795H213.962V19.6647C213.962 18.5367 213.717 17.7045 213.227 17.1679C212.747 16.6203 211.958 16.3466 210.858 16.3466C209.257 16.3466 208.065 17.0748 207.281 18.5312V31.1795H203.311V13.4062H207.052Z" fill="black"/>
<g opacity="0.8">
<path d="M48.0541 21.6599H38.4819V31.7949H34.3491V7.8782H49.459V11.2292H38.4819V18.3417H48.0541V21.6599Z" fill="black"/>
<path d="M62.7066 30.0537C61.5414 31.4335 59.8861 32.1234 57.7408 32.1234C55.8241 32.1234 54.3703 31.5594 53.3793 30.4315C52.3992 29.3036 51.9092 27.6719 51.9092 25.5365V14.0216H55.8786V25.4872C55.8786 27.7431 56.8097 28.871 58.6719 28.871C60.5994 28.871 61.9007 28.1756 62.5759 26.7849V14.0216H66.5453V31.7949H62.8046L62.7066 30.0537Z" fill="black"/>
<path d="M74.8108 31.7949H70.8414V6.5641H74.8108V31.7949Z" fill="black"/>
<path d="M83.3703 31.7949H79.4009V6.5641H83.3703V31.7949Z" fill="black"/>
</g>
<path opacity="0.2" d="M0 9.02564C0 7.66617 1.09594 6.5641 2.44785 6.5641H12.6472C19.6321 6.5641 25.2945 12.2581 25.2945 19.2821C25.2945 26.306 19.6321 32 12.6472 32C5.66236 32 0 26.306 0 19.2821V9.02564Z" fill="#003053"/>
<path opacity="0.4" d="M5.71165 14.7692C5.71165 13.4098 6.8076 12.3077 8.15951 12.3077H15.0951C20.2774 12.3077 24.4785 16.5323 24.4785 21.7436C24.4785 26.9549 20.2774 31.1795 15.0951 31.1795C9.91276 31.1795 5.71165 26.9549 5.71165 21.7436V14.7692Z" fill="#003053"/>
<path d="M11.4233 20.1026C11.4233 18.9697 12.3366 18.0513 13.4632 18.0513H17.5429C20.9227 18.0513 23.6626 20.8065 23.6626 24.2051C23.6626 27.6038 20.9227 30.359 17.5429 30.359C14.1632 30.359 11.4233 27.6038 11.4233 24.2051V20.1026Z" fill="#003053"/>
</svg>
