<svg width="222" height="41" viewBox="0 0 222 41" fill="none" xmlns="http://www.w3.org/2000/svg">
<path d="M99.8453 22.2959H95.2131V31.511H91.0573V7.59434H99.4675C102.227 7.59434 104.357 8.21307 105.857 9.45051C107.358 10.688 108.108 12.4784 108.108 14.8219C108.108 16.4207 107.719 17.7622 106.941 18.8463C106.175 19.9195 105.102 20.7463 103.722 21.3267L109.093 31.2975V31.511H104.642L99.8453 22.2959ZM95.2131 18.9613H99.4839C100.886 18.9613 101.981 18.6109 102.769 17.91C103.558 17.1982 103.952 16.2291 103.952 15.0026C103.952 13.7213 103.585 12.7303 102.851 12.0294C102.129 11.3286 101.044 10.9672 99.5989 10.9453H95.2131V18.9613Z" fill="black"/>
<path d="M119.491 31.8395C116.961 31.8395 114.908 31.0456 113.331 29.4577C111.765 27.8589 110.982 25.7344 110.982 23.0843V22.5915C110.982 20.8175 111.322 19.2351 112.001 17.8443C112.691 16.4426 113.654 15.353 114.892 14.5755C116.129 13.798 117.509 13.4092 119.031 13.4092C121.451 13.4092 123.318 14.1813 124.633 15.7254C125.958 17.2694 126.62 19.4541 126.62 22.2794V23.8892H115.007C115.127 25.3566 115.615 26.5174 116.469 27.3716C117.334 28.2258 118.418 28.6528 119.721 28.6528C121.55 28.6528 123.039 27.9137 124.189 26.4353L126.341 28.4886C125.629 29.5508 124.676 30.3776 123.483 30.9689C122.3 31.5493 120.97 31.8395 119.491 31.8395ZM119.015 16.6124C117.92 16.6124 117.033 16.9957 116.354 17.7622C115.686 18.5288 115.259 19.5965 115.072 20.9653H122.678V20.6697C122.59 19.3337 122.234 18.3262 121.61 17.6472C120.986 16.9573 120.121 16.6124 119.015 16.6124Z" fill="black"/>
<path d="M140.353 31.511C140.177 31.1715 140.024 30.6185 139.893 29.852C138.622 31.177 137.067 31.8395 135.228 31.8395C133.443 31.8395 131.986 31.3303 130.858 30.3119C129.73 29.2935 129.166 28.0341 129.166 26.5338C129.166 24.6393 129.867 23.1884 131.269 22.1809C132.681 21.1625 134.696 20.6532 137.314 20.6532H139.761V19.487C139.761 18.5671 139.504 17.8334 138.989 17.2859C138.474 16.7274 137.691 16.4481 136.64 16.4481C135.731 16.4481 134.987 16.6781 134.406 17.138C133.826 17.587 133.536 18.1619 133.536 18.8628H129.544C129.544 17.8881 129.867 16.9792 130.513 16.136C131.159 15.2818 132.035 14.6138 133.141 14.132C134.258 13.6502 135.501 13.4092 136.87 13.4092C138.951 13.4092 140.61 13.9349 141.847 14.9862C143.085 16.0265 143.72 17.4939 143.753 19.3884V27.4044C143.753 29.0033 143.977 30.279 144.426 31.2318V31.511H140.353ZM135.967 28.6364C136.755 28.6364 137.494 28.4448 138.184 28.0615C138.885 27.6782 139.411 27.1635 139.761 26.5174V23.1665H137.609C136.131 23.1665 135.019 23.4238 134.275 23.9385C133.53 24.4532 133.158 25.1814 133.158 26.1232C133.158 26.8897 133.41 27.503 133.913 27.9629C134.428 28.4119 135.113 28.6364 135.967 28.6364Z" fill="black"/>
<path d="M155.235 28.6528C156.231 28.6528 157.058 28.3626 157.715 27.7822C158.372 27.2018 158.723 26.4846 158.766 25.6304H162.528C162.484 26.7364 162.139 27.7713 161.493 28.735C160.847 29.6877 159.971 30.4433 158.865 31.0018C157.759 31.5603 156.565 31.8395 155.284 31.8395C152.798 31.8395 150.827 31.0346 149.371 29.4249C147.914 27.8151 147.186 25.5921 147.186 22.7558V22.3451C147.186 19.6403 147.909 17.4775 149.354 15.8568C150.8 14.2251 152.771 13.4092 155.268 13.4092C157.381 13.4092 159.1 14.028 160.425 15.2654C161.761 16.4919 162.462 18.1072 162.528 20.1112H158.766C158.723 19.0927 158.372 18.255 157.715 17.5979C157.069 16.9409 156.242 16.6124 155.235 16.6124C153.943 16.6124 152.946 17.0833 152.245 18.025C151.544 18.9559 151.188 20.374 151.177 22.2794V22.9201C151.177 24.8474 151.522 26.2875 152.212 27.2402C152.913 28.1819 153.921 28.6528 155.235 28.6528Z" fill="black"/>
<path d="M170.544 9.41766V13.7378H173.681V16.6945H170.544V26.616C170.544 27.2949 170.675 27.7877 170.938 28.0943C171.212 28.39 171.694 28.5379 172.384 28.5379C172.844 28.5379 173.309 28.4831 173.78 28.3736V31.4617C172.871 31.7136 171.995 31.8395 171.152 31.8395C168.086 31.8395 166.552 30.1476 166.552 26.7638V16.6945H163.629V13.7378H166.552V9.41766H170.544Z" fill="black"/>
<path d="M180.991 31.511H177V13.7378H180.991V31.511ZM176.753 9.12199C176.753 8.50874 176.945 7.99953 177.328 7.59434C177.722 7.18916 178.281 6.98657 179.004 6.98657C179.726 6.98657 180.285 7.18916 180.679 7.59434C181.073 7.99953 181.27 8.50874 181.27 9.12199C181.27 9.72429 181.073 10.228 180.679 10.6332C180.285 11.0274 179.726 11.2246 179.004 11.2246C178.281 11.2246 177.722 11.0274 177.328 10.6332C176.945 10.228 176.753 9.72429 176.753 9.12199Z" fill="black"/>
<path d="M184.605 22.4601C184.605 20.7189 184.95 19.153 185.64 17.7622C186.33 16.3605 187.299 15.2873 188.547 14.5427C189.796 13.7871 191.23 13.4092 192.851 13.4092C195.249 13.4092 197.193 14.1813 198.682 15.7254C200.183 17.2694 200.993 19.3172 201.113 21.8688L201.13 22.8051C201.13 24.5572 200.79 26.1232 200.111 27.503C199.443 28.8828 198.48 29.9505 197.22 30.7061C195.972 31.4617 194.526 31.8395 192.884 31.8395C190.376 31.8395 188.367 31.0073 186.855 29.3427C185.355 27.6673 184.605 25.4388 184.605 22.6572V22.4601ZM188.597 22.8051C188.597 24.6339 188.974 26.0684 189.73 27.1088C190.486 28.1381 191.537 28.6528 192.884 28.6528C194.231 28.6528 195.277 28.1272 196.021 27.0759C196.777 26.0246 197.155 24.486 197.155 22.4601C197.155 20.6642 196.766 19.2406 195.988 18.1893C195.222 17.138 194.176 16.6124 192.851 16.6124C191.548 16.6124 190.513 17.1325 189.746 18.1729C188.98 19.2022 188.597 20.7463 188.597 22.8051Z" fill="black"/>
<path d="M208.209 13.7378L208.324 15.7911C209.639 14.2032 211.363 13.4092 213.499 13.4092C217.2 13.4092 219.084 15.5282 219.149 19.7662V31.511H215.158V19.9962C215.158 18.8682 214.911 18.036 214.419 17.4994C213.937 16.9518 213.143 16.6781 212.037 16.6781C210.427 16.6781 209.228 17.4063 208.439 18.8628V31.511H204.448V13.7378H208.209Z" fill="black"/>
<g opacity="0.8">
<path d="M48.3228 21.9915H38.697V32.1265H34.5411V8.20985H49.7354V11.5608H38.697V18.6734H48.3228V21.9915Z" fill="black"/>
<path d="M63.0572 30.3853C61.8854 31.7651 60.2209 32.455 58.0636 32.455C56.1362 32.455 54.6743 31.8911 53.6778 30.7631C52.6922 29.6352 52.1994 28.0035 52.1994 25.8681V14.3533H56.191V25.8188C56.191 28.0747 57.1273 29.2026 58.9999 29.2026C60.9382 29.2026 62.2468 28.5073 62.9258 27.1165V14.3533H66.9173V32.1265H63.1557L63.0572 30.3853Z" fill="black"/>
<path d="M75.229 32.1265H71.2375V6.89575H75.229V32.1265Z" fill="black"/>
<path d="M83.8364 32.1265H79.8448V6.89575H83.8364V32.1265Z" fill="black"/>
</g>
<path opacity="0.2" d="M0 9.35729C0 7.99782 1.10207 6.89575 2.46154 6.89575H12.7179C19.7419 6.89575 25.4359 12.5898 25.4359 19.6137C25.4359 26.6376 19.7419 32.3316 12.7179 32.3316C5.69402 32.3316 0 26.6376 0 19.6137V9.35729Z" fill="#003053"/>
<path opacity="0.4" d="M5.74353 15.1009C5.74353 13.7415 6.8456 12.6394 8.20507 12.6394H15.1794C20.3907 12.6394 24.6153 16.864 24.6153 22.0753C24.6153 27.2866 20.3907 31.5112 15.1794 31.5112C9.96813 31.5112 5.74353 27.2866 5.74353 22.0753V15.1009Z" fill="#003053"/>
<path d="M11.4872 20.4341C11.4872 19.3012 12.4056 18.3828 13.5385 18.3828H17.641C21.0397 18.3828 23.7949 21.138 23.7949 24.5367C23.7949 27.9353 21.0397 30.6905 17.641 30.6905C14.2424 30.6905 11.4872 27.9353 11.4872 24.5367V20.4341Z" fill="#003053"/>
</svg>
