<svg width="48" height="48" viewBox="0 0 48 48" fill="none" xmlns="http://www.w3.org/2000/svg">
<path d="M24 48C37.2548 48 48 37.2548 48 24C48 10.7452 37.2548 0 24 0C10.7452 0 0 10.7452 0 24C0 37.2548 10.7452 48 24 48Z" fill="#8BA651"/>
<path fill-rule="evenodd" clip-rule="evenodd" d="M37.5999 22.4083C37.5999 21.3059 37.1253 14.7527 37.1253 14.7527C37.1253 13.7138 36.7404 13.0177 36.2569 12.5431C35.7842 12.0614 35.0878 11.6747 34.0491 11.6747C34.0491 11.6747 27.4957 11.2001 26.3917 11.2001L26.287 11.2001C24.7607 11.1991 23.7075 11.1984 21.7669 13.1407C21.2706 13.6361 18.2004 16.7063 15.2735 19.6331L15.2706 19.6361C12.5073 22.3993 9.87268 25.0339 9.65339 25.2524C9.20335 25.7025 7.68116 27.478 10.2776 30.0742L14.3858 34.1825L14.6179 34.4146L18.7262 38.5245C21.3242 41.1225 23.0998 39.5969 23.5498 39.1468C23.9998 38.6966 34.6982 27.9982 35.6615 27.0349C37.6017 25.0941 37.601 24.0427 37.6 22.5167L37.5999 22.4083ZM26.1673 25.9425L29.8326 27.6832L28.4845 30.0953L25.0943 27.8815C25.0157 27.8296 24.9265 27.8028 24.8371 27.8028C24.7584 27.8028 24.6802 27.8225 24.6086 27.8634C24.4568 27.951 24.3692 28.117 24.3818 28.2918L24.6621 32.3017H21.9486H21.936C21.9465 32.2676 22.1592 28.2899 22.1592 28.2899C22.1717 28.1152 22.0842 27.949 21.9323 27.8616C21.7787 27.774 21.5914 27.7813 21.4468 27.8794L18.1511 30.1182L16.68 27.7779L20.3773 25.9423C20.5362 25.8675 20.638 25.7065 20.638 25.5299C20.638 25.3532 20.5362 25.1924 20.3773 25.1176L16.7104 23.3769L18.0582 20.9652L21.4468 23.1807C21.5914 23.2771 21.7787 23.2877 21.9323 23.1985C22.0842 23.1109 22.1715 22.9451 22.1592 22.77L21.8806 18.76H24.596L24.3818 22.77C24.3692 22.9449 24.4568 23.1109 24.6086 23.1985C24.7621 23.2877 24.9514 23.2771 25.0943 23.1807L28.3901 20.9419L29.8612 23.2826L26.1673 25.1178C26.0084 25.1928 25.9066 25.3534 25.9066 25.5301C25.9066 25.7069 26.0084 25.8677 26.1673 25.9425ZM30.7019 16.5176C30.7019 17.4756 31.4773 18.2526 32.4371 18.2526C33.3915 18.2526 34.1667 17.4756 34.1667 16.5176C34.1667 15.5595 33.3915 14.7843 32.4371 14.7843C31.4771 14.7843 30.7019 15.5595 30.7019 16.5176Z" fill="white"/>
</svg>
