<svg width="48" height="48" viewBox="0 0 48 48" fill="none" xmlns="http://www.w3.org/2000/svg">
<path d="M24.1532 47.592C37.1914 47.592 47.7609 37.0225 47.7609 23.9843C47.7609 10.9461 37.1914 0.376617 24.1532 0.376617C11.1151 0.376617 0.545532 10.9461 0.545532 23.9843C0.545532 37.0225 11.1151 47.592 24.1532 47.592Z" fill="#DE5833"/>
<mask id="mask0" mask-type="alpha" maskUnits="userSpaceOnUse" x="0" y="0" width="48" height="48">
<path fill-rule="evenodd" clip-rule="evenodd" d="M47.8541 23.9188C47.8541 36.9877 37.2226 47.6206 24.1523 47.6206C11.0848 47.6206 0.453217 36.9872 0.453217 23.9188C0.453217 10.8512 11.0852 0.219238 24.1523 0.219238C37.2221 0.219238 47.8541 10.8512 47.8541 23.9188Z" fill="white"/>
</mask>
<g mask="url(#mask0)">
<path d="M33.8275 59.1499C32.9963 55.326 28.1681 46.6703 26.3367 43.0103C24.5067 39.3494 22.6731 34.1903 23.508 30.8617C23.6594 30.2562 21.9221 25.6426 22.4215 25.3163C26.3058 22.7829 27.3286 25.5928 28.884 24.4569C29.6843 23.8694 30.7717 24.9402 31.0481 23.9677C32.0441 20.4752 29.6607 14.3862 27 11.7249C26.13 10.8577 24.798 10.3126 23.2938 10.0232C22.7151 9.23262 21.7823 8.47247 20.4609 7.77139C18.9895 6.98816 15.7897 5.95386 14.13 5.67832C12.9798 5.48909 12.72 5.81078 12.2289 5.89109C12.6867 5.9317 14.8592 7.00524 15.282 7.06755C14.8592 7.35324 13.6172 7.05462 12.8247 7.41001C12.4255 7.59093 12.1269 8.27632 12.1297 8.60078C14.3958 8.37186 17.9331 8.59339 20.022 9.52386C18.3595 9.71309 15.8312 9.92401 14.7438 10.4954C11.5832 12.1606 10.1871 16.05 11.0192 20.7106C11.8518 25.3606 15.5137 42.3337 16.6786 48.0009C17.844 53.6612 14.1826 57.3189 11.8532 58.3182L14.3492 58.4857L13.518 60.3166C16.5106 60.6485 19.8387 59.6525 19.8387 59.6525C19.1751 61.4825 14.6806 62.1503 14.6806 62.1503C14.6806 62.1503 16.8457 62.814 20.3381 61.4825C23.8357 60.1519 25.998 59.3188 25.998 59.3188L27.6614 63.6448L30.8247 60.4846L32.1563 63.8128C32.1627 63.8123 34.6597 62.9783 33.8275 59.1499Z" fill="#D5D7D8"/>
<path d="M34.8327 58.374C34.0043 54.5483 29.1761 45.8926 27.3429 42.2299C25.5106 38.5671 23.6806 33.4089 24.5137 30.0817C24.6683 29.4776 24.671 27.0042 25.1732 26.676C29.0552 24.1403 28.7787 26.5911 30.3364 25.4552C31.1395 24.8686 31.7824 24.1602 32.0617 23.1882C33.0604 19.6934 30.6743 13.6066 28.0126 10.944C27.1454 10.0768 25.812 9.53079 24.3097 9.24279C23.7318 8.44986 22.8 7.69156 21.4804 6.98956C18.9923 5.66863 15.9078 5.14063 13.05 5.65894C13.5069 5.70048 14.5527 6.64571 14.9737 6.70802C14.3363 7.14002 12.6415 7.08417 12.6526 8.04463C14.9215 7.81756 17.4078 8.17617 19.499 9.10479C17.8366 9.29402 16.289 9.70479 15.2017 10.2785C12.0383 11.9414 11.2066 15.2686 12.0383 19.9311C12.8723 24.5912 16.5346 41.5648 17.6949 47.22C18.8612 52.8785 15.2017 56.5376 12.8723 57.5372L15.3683 57.7029L14.537 59.5366C17.5297 59.8694 20.8578 58.8725 20.8578 58.8725C20.1941 60.7066 15.6997 61.3676 15.6997 61.3676C15.6997 61.3676 17.8624 62.0317 21.3572 60.7006C24.8561 59.37 27.0198 58.5369 27.0198 58.5369L28.6832 62.8629L31.8461 59.7L33.1804 63.03C33.173 63.0332 35.6672 62.2006 34.8327 58.374Z" fill="white"/>
<path d="M15.702 20.1651C15.702 19.1991 16.4833 18.4172 17.4507 18.4172C18.4153 18.4172 19.1977 19.1991 19.1977 20.1651C19.1977 21.1315 18.4153 21.9125 17.4507 21.9125C16.4833 21.9129 15.702 21.1315 15.702 20.1651Z" fill="#2D4F8E"/>
<path d="M17.7724 19.5826C17.7724 19.3311 17.976 19.1289 18.2247 19.1289C18.4754 19.1289 18.6789 19.3311 18.6789 19.5826C18.6789 19.8332 18.4754 20.0368 18.2247 20.0368C17.9764 20.0372 17.7724 19.8332 17.7724 19.5826Z" fill="white"/>
<path d="M27.6309 19.1285C27.6309 18.3009 28.3052 17.6285 29.1318 17.6285C29.963 17.6285 30.6346 18.3009 30.6346 19.1285C30.6346 19.9597 29.963 20.6322 29.1318 20.6322C28.3052 20.6322 27.6309 19.9597 27.6309 19.1285Z" fill="#2D4F8E"/>
<path d="M29.4115 18.6291C29.4115 18.4154 29.5864 18.24 29.7983 18.24C30.0193 18.24 30.1887 18.4154 30.1887 18.6291C30.1887 18.8456 30.0193 19.0177 29.7983 19.0177C29.5864 19.0177 29.4115 18.8456 29.4115 18.6291Z" fill="white"/>
<path d="M17.9474 15.1006C17.9474 15.1006 16.6301 14.5048 15.3494 15.3097C14.0709 16.1137 14.118 16.9357 14.118 16.9357C14.118 16.9357 13.4381 15.4205 15.2501 14.6779C17.064 13.9353 17.9474 15.1006 17.9474 15.1006Z" fill="url(#paint0_linear)"/>
<path d="M30.036 14.9806C30.036 14.9806 29.0893 14.4397 28.3546 14.4489C26.8449 14.4688 26.4337 15.1357 26.4337 15.1357C26.4337 15.1357 26.687 13.5457 28.6177 13.8646C29.6644 14.0386 30.036 14.9806 30.036 14.9806Z" fill="url(#paint1_linear)"/>
</g>
<path d="M22.8 26.9054C22.9749 25.848 25.7072 23.8477 27.642 23.7268C29.5809 23.6045 30.1851 23.6322 31.8004 23.2454C33.4204 22.8586 37.5858 21.8202 38.7387 21.2875C39.8944 20.754 44.7867 21.5515 41.3377 23.4743C39.846 24.3092 35.8255 25.8425 32.9506 26.6991C30.0803 27.558 28.3398 25.8794 27.3844 27.2903C26.6247 28.4128 27.2303 29.9497 30.6609 30.2686C35.2934 30.6979 39.7347 28.182 40.2235 29.5186C40.7146 30.8548 36.2427 32.5223 33.5197 32.5754C30.7998 32.6266 25.3177 30.7772 24.4943 30.2045C23.67 29.6331 22.572 28.2983 22.8 26.9054Z" fill="#FDD20A"/>
<path d="M24.8968 40.8886C24.8968 40.8886 18.3881 37.4174 18.282 38.8255C18.1721 40.236 18.282 45.9835 19.0403 46.4183C19.8 46.8512 25.2231 43.5992 25.2231 43.5992L24.8968 40.8886Z" fill="#65BC46"/>
<path d="M27.3904 40.6699C27.3904 40.6699 31.8374 37.3075 32.8154 37.5245C33.7897 37.7455 34.0071 44.6829 33.1389 45.0148C32.2708 45.3332 27.1814 43.2549 27.1814 43.2549L27.3904 40.6699Z" fill="#65BC46"/>
<path d="M23.3211 41.2565C23.3211 43.5328 22.9938 44.5098 23.9718 44.7268C24.9452 44.9451 26.7891 44.7268 27.4417 44.2938C28.0924 43.8609 27.5487 40.9343 27.3346 40.3869C27.1144 39.8451 23.3211 40.2798 23.3211 41.2565Z" fill="#43A244"/>
<path d="M23.7351 40.7502C23.7351 43.0269 23.4088 44.004 24.3854 44.2205C25.3574 44.4416 27.2026 44.2205 27.8557 43.7876C28.5065 43.3532 27.9623 40.428 27.7468 39.8802C27.5285 39.3388 23.7351 39.7754 23.7351 40.7502Z" fill="#65BC46"/>
<defs>
<linearGradient id="paint0_linear" x1="13.9931" y1="16.9356" x2="17.9477" y2="16.9356" gradientUnits="userSpaceOnUse">
<stop offset="0.0056" stop-color="#6176B9"/>
<stop offset="0.691" stop-color="#394A9F"/>
</linearGradient>
<linearGradient id="paint1_linear" x1="26.4338" y1="15.1356" x2="30.036" y2="15.1356" gradientUnits="userSpaceOnUse">
<stop offset="0.0056" stop-color="#6176B9"/>
<stop offset="0.691" stop-color="#394A9F"/>
</linearGradient>
</defs>
</svg>
