<svg width="48" height="48" viewBox="0 0 48 48" fill="none" xmlns="http://www.w3.org/2000/svg">
<rect x="0.0449982" y="0.031189" width="47.91" height="47.8132" rx="23.9066" fill="#314358"/>
<path d="M31.515 31.9224C30.9583 32.1869 29.8937 32.417 29.0998 32.4368C26.703 32.5007 26.2378 30.7598 26.2185 29.4978V20.2144H32.2307V15.699H26.2393V8.10248C26.2393 8.10248 21.9253 8.10248 21.855 8.10248C21.7828 8.10248 21.6568 8.16542 21.639 8.32511C21.3825 10.65 20.2905 14.7306 15.7485 16.3622V20.2142H18.7785V29.9574C18.7785 33.2937 21.249 38.0334 27.7708 37.9215C29.9713 37.884 32.4152 36.9665 32.9548 36.1744L31.515 31.9224Z" fill="white"/>
</svg>
