<svg width="48" height="48" viewBox="0 0 48 48" fill="none" xmlns="http://www.w3.org/2000/svg">
<path d="M24 48C37.2548 48 48 37.2548 48 24C48 10.7452 37.2548 0 24 0C10.7452 0 0 10.7452 0 24C0 37.2548 10.7452 48 24 48Z" fill="#DD4814"/>
<path fill-rule="evenodd" clip-rule="evenodd" d="M34.8004 11.8993C35.6571 10.4012 35.1496 8.48539 33.667 7.62002C32.1856 6.75523 30.2897 7.26872 29.433 8.76678C28.5775 10.2648 29.0855 12.1813 30.5675 13.046C32.0495 13.912 33.946 13.3979 34.8004 11.8993ZM8.70011 27.1326C10.4117 27.1326 11.7991 25.7308 11.7991 24.0001C11.7991 22.2699 10.4112 20.867 8.70011 20.867C6.98791 20.867 5.60001 22.2699 5.60001 24.0001C5.60001 25.7303 6.98791 27.1326 8.70011 27.1326ZM33.667 40.3796C32.1839 41.245 30.2897 40.7315 29.433 39.2334C28.5775 37.7354 29.0855 35.8201 30.5675 34.9542C32.0495 34.0888 33.9449 34.6017 34.8004 36.1003C35.6571 37.599 35.1479 39.5148 33.667 40.3796ZM33.1148 23.2081C32.7191 18.6446 28.9296 15.0656 24.3106 15.0656C22.9811 15.0656 21.7191 15.3631 20.5869 15.896L18.4047 11.9342C20.1855 11.0419 22.1908 10.5405 24.3106 10.5405C25.5216 10.5405 26.693 10.7044 27.8076 11.0099C28.0043 12.2827 28.747 13.4581 29.9365 14.1521C31.1248 14.8461 32.502 14.9092 33.6903 14.4455C35.9326 16.6943 37.3874 19.7449 37.6 23.1376L33.1148 23.2081ZM15.4724 24.0001C15.4724 20.977 16.9572 18.3053 19.2301 16.6886L16.9272 12.7979C14.2597 14.5985 12.2719 17.3459 11.434 20.5656C12.4261 21.3736 13.0611 22.6115 13.0611 24.0001C13.0611 25.3887 12.4261 26.6266 11.434 27.4346C12.2725 30.6548 14.2597 33.4016 16.9272 35.2029L19.2301 31.3122C16.9572 29.6955 15.4724 27.0232 15.4724 24.0001ZM20.5869 32.1053C21.7191 32.6371 22.9811 32.9352 24.3106 32.9352C28.9296 32.9352 32.7191 29.3556 33.1148 24.7915L37.6 24.8632C37.3874 28.2542 35.9326 31.3053 33.6903 33.5552C32.502 33.0922 31.1248 33.1546 29.9365 33.8487C28.747 34.5427 28.0043 35.7175 27.8076 36.9909C26.693 37.2969 25.5216 37.4603 24.3106 37.4603C22.1908 37.4603 20.1855 36.9594 18.4047 36.0671L20.5869 32.1053Z" fill="white"/>
</svg>
