<svg width="48" height="48" viewBox="0 0 48 48" fill="none" xmlns="http://www.w3.org/2000/svg">
<path d="M17.0572 11.9579V21.7063C17.0572 23.2832 16.7663 24.4301 16.0391 25.1469C15.4574 25.8637 14.2938 26.2937 12.8394 26.2937C11.385 26.2937 10.3669 26.007 9.63971 25.2902C9.05794 24.5734 8.62162 23.4266 8.62162 21.7063V11.9579H3.2403V21.7063C3.2403 24.5734 3.82206 26.7238 4.98559 28.3008C5.13103 28.4441 5.27647 28.7308 5.56735 28.8742C7.16721 30.4511 9.49427 31.1679 12.8394 31.1679C16.0391 31.1679 18.5116 30.4511 19.966 28.8742C20.1115 28.7308 20.2569 28.4441 20.5478 28.3008C21.7113 26.7238 22.2931 24.5734 22.2931 21.7063V11.9579H17.0572Z" fill="url(#paint0_linear)"/>
<path fill-rule="evenodd" clip-rule="evenodd" d="M25.7837 11.9579V36.3288V36.4722H31.3105V31.3113V29.4476C31.3105 29.1403 31.2687 28.833 31.2299 28.5478C31.1963 28.3008 31.165 28.0703 31.165 27.8707C31.8922 29.0175 32.7649 29.8777 33.783 30.4511C34.801 31.0246 36.11 31.3113 37.5644 31.3113C40.0369 31.3113 42.0731 30.4511 43.5275 28.5875C45.1274 26.7238 45.8546 24.2867 45.8546 21.2762C45.8546 18.1223 44.9819 15.6852 43.5275 13.9649C42.0731 12.2446 39.8915 11.3845 37.2735 11.3845C35.8191 11.3845 34.6556 11.6712 33.6375 12.2446C32.6194 12.818 31.7468 13.6782 31.0196 14.9684V11.9579H25.7837ZM32.1831 25.0035C31.3105 24.1434 30.8741 22.8531 30.8741 21.1328C30.8741 19.4125 31.165 18.1223 32.1831 17.1188C33.0558 16.1153 34.2193 15.6852 35.6737 15.6852C37.1281 15.6852 38.2916 16.1153 39.1643 17.1188C40.0369 18.1223 40.4732 19.4125 40.4732 21.1328C40.4732 22.7098 40.0369 24 39.1643 25.0035C38.2916 26.007 37.1281 26.4371 35.6737 26.4371C34.2193 26.4371 33.0558 26.007 32.1831 25.0035Z" fill="url(#paint1_linear)"/>
<path d="M20.8387 36.1855C20.6932 36.0421 20.5478 35.7554 20.2569 35.612C18.657 34.0351 16.33 33.3183 12.9848 33.3183C9.78514 33.3183 7.31264 34.0351 5.85822 35.612C5.71278 35.7554 5.56734 36.0421 5.27646 36.1855H20.8387Z" fill="#3A3A3A"/>
<defs>
<linearGradient id="paint0_linear" x1="8.61507" y1="47.7742" x2="53.7062" y2="30.9915" gradientUnits="userSpaceOnUse">
<stop stop-color="#6A11CB"/>
<stop offset="1" stop-color="#2575FC"/>
</linearGradient>
<linearGradient id="paint1_linear" x1="11.5137" y1="60.1807" x2="56.2965" y2="49.3356" gradientUnits="userSpaceOnUse">
<stop stop-color="#6A11CB"/>
<stop offset="1" stop-color="#2575FC"/>
</linearGradient>
</defs>
</svg>
