<svg width="15" height="17" viewBox="0 0 15 17" fill="none" xmlns="http://www.w3.org/2000/svg">
<path d="M13.0319 0.343506H2.31188C1.40788 0.343506 0.671875 1.07951 0.671875 1.99151V12.8075C0.671875 13.7195 1.40788 14.4555 2.31188 14.4555H11.3839L10.9599 12.9755L11.9839 13.9275L12.9519 14.8235L14.6719 16.3435V1.99151C14.6719 1.07951 13.9359 0.343506 13.0319 0.343506ZM9.94388 10.7915C9.94388 10.7915 9.65588 10.4475 9.41588 10.1435C10.4639 9.84751 10.8639 9.19151 10.8639 9.19151C10.5359 9.40751 10.2239 9.55951 9.94388 9.66351C9.54388 9.83151 9.15988 9.94351 8.78388 10.0075C8.09872 10.1337 7.39604 10.1309 6.71187 9.99951C6.31021 9.92091 5.91657 9.80577 5.53587 9.65551C5.3352 9.57834 5.14007 9.48746 4.95188 9.38351C4.92788 9.36751 4.90388 9.35951 4.87988 9.34351C4.86388 9.33551 4.85588 9.32751 4.84788 9.31951C4.70388 9.23951 4.62388 9.18351 4.62388 9.18351C4.62388 9.18351 5.00788 9.82351 6.02388 10.1275C5.78388 10.4315 5.48787 10.7915 5.48787 10.7915C3.71987 10.7355 3.04787 9.57551 3.04787 9.57551C3.04787 6.99951 4.19987 4.91151 4.19987 4.91151C5.35187 4.04751 6.44788 4.07151 6.44788 4.07151L6.52787 4.16751C5.08787 4.58351 4.42387 5.21551 4.42387 5.21551C4.42387 5.21551 4.59987 5.11951 4.89587 4.98351C5.75187 4.60751 6.43187 4.50351 6.71187 4.47951C6.75987 4.47151 6.79988 4.46351 6.84788 4.46351C8.23516 4.27574 9.64603 4.5394 10.8719 5.21551C10.8719 5.21551 10.2399 4.61551 8.87988 4.19951L8.99187 4.07151C8.99187 4.07151 10.0879 4.04751 11.2399 4.91151C11.2399 4.91151 12.3919 6.99951 12.3919 9.57551C12.3919 9.57551 11.7119 10.7355 9.94388 10.7915Z" fill="white"/>
</svg>
